<svg width="50" height="48" viewBox="0 0 50 48" fill="none" xmlns="http://www.w3.org/2000/svg">
<path d="M25 0C11.1937 0 0 10.9143 0 24.3758C0 35.7979 8.06667 45.3552 18.9417 48C18.825 47.6709 18.75 47.289 18.75 46.8157V42.6495C17.7354 42.6495 16.0354 42.6495 15.6083 42.6495C13.8979 42.6495 12.3771 41.9325 11.6396 40.5999C10.8208 39.1191 10.6792 36.8542 8.65 35.4688C8.04792 35.0077 8.50625 34.4816 9.2 34.5527C10.4812 34.9061 11.5437 35.7634 12.5437 37.035C13.5396 38.3086 14.0083 38.597 15.8687 38.597C16.7708 38.597 18.1208 38.5463 19.3917 38.3512C20.075 36.6592 21.2562 35.1011 22.7 34.3658C14.375 33.5309 10.4021 29.4927 10.4021 24.0102C10.4021 21.6498 11.4333 19.3666 13.1854 17.4429C12.6104 15.5335 11.8875 11.6394 13.4062 10.1566C17.1521 10.1566 19.4167 12.5251 19.9604 13.165C21.8271 12.5413 23.8771 12.1879 26.0312 12.1879C28.1896 12.1879 30.2479 12.5413 32.1187 13.169C32.6562 12.5332 34.9229 10.1566 38.6771 10.1566C40.2021 11.6415 39.4708 15.5518 38.8896 17.4571C40.6312 19.3767 41.6562 21.6538 41.6562 24.0102C41.6562 29.4886 37.6896 33.5248 29.3771 34.3638C31.6646 35.5277 33.3333 38.7981 33.3333 41.2621V46.8157C33.3333 47.027 33.2854 47.1794 33.2604 47.3601C43.0021 44.0308 50 35.0118 50 24.3758C50 10.9143 38.8062 0 25 0Z" fill="#F2F2F2"/>
</svg>
