<svg width="50" height="50" viewBox="0 0 50 50" fill="none" xmlns="http://www.w3.org/2000/svg">
<path d="M49.5415 10.3889C48.986 10.75 48.1943 11.0833 47.861 11.4583C47.736 11.5833 47.6665 11.7222 47.6943 11.8611V13.2917L47.2777 14.6944L46.861 16.0833L46.4027 17.6111L45.4582 20.7361L44.5415 23.8194L43.8471 26.1389C43.8471 26.5 43.8332 26.8611 43.8054 27.2083C43.7082 28.5417 43.4304 29.8194 42.986 31.0139C42.7221 31.75 42.4027 32.4583 42.0138 33.125C41.8749 33.3889 41.7082 33.6528 41.5416 33.9028C40.986 34.7778 40.3193 35.5833 39.5832 36.2917C39.0138 36.8611 38.3888 37.3889 37.7082 37.8333C37.7082 37.8333 37.7082 37.8333 37.6943 37.8333C37.5832 37.9305 37.4582 38.0139 37.3193 38.0833C36.8888 38.375 36.4304 38.625 35.9582 38.8472C35.6388 39.0139 35.3193 39.1528 34.986 39.2778C34.9166 39.3194 34.8332 39.3472 34.7638 39.375C33.9721 39.75 33.0555 40 32.1388 40.125C32.0832 40.1389 32.0416 40.1389 31.986 40.1528C31.4305 40.25 30.8888 40.3333 30.3332 40.375C30.0832 40.4028 29.8193 40.4167 29.5693 40.4167L28.5832 40.3611L23.8332 40.1111C23.8332 40.0972 23.8194 40.1111 23.8194 40.1111L21.4305 39.9861C21.2499 39.9861 21.0555 39.9861 20.8749 39.9722C20.1249 39.9444 19.4027 39.8611 18.6805 39.7083C18.6666 39.7083 18.6666 39.7083 18.6666 39.7083C17.3471 39.4583 16.0833 39.0139 14.9027 38.4167C14.2499 38.0833 13.611 37.7083 13.0138 37.2778C12.7638 37.0972 12.5277 36.9028 12.2916 36.6944C11.6249 36.1389 11.0277 35.5417 10.4722 34.9305C10.3888 34.8472 10.3194 34.7639 10.2499 34.6805C10.1666 34.5972 10.0833 34.5 10.0138 34.4167C9.48604 33.75 9.0416 33.0694 8.68049 32.3472C8.34715 31.7083 8.08326 31.0278 7.87493 30.2778C7.7916 30.0139 7.72215 29.7639 7.6666 29.4861C7.65271 29.4722 7.63882 29.4444 7.63882 29.4167C7.49993 28.8472 7.37493 28.25 7.30549 27.6528C7.22216 27.1944 7.18049 26.7361 7.18049 26.2639C7.15271 26.0833 7.15271 25.8889 7.15271 25.7083L9.80549 21.6111L12.4027 17.6111L13.5833 15.7917L14.6527 14.1528L15.0138 13.5833V12.1528C15.0416 11.8333 15.0555 11.5 15.0416 11.1944C15.0277 10.2222 14.8333 9.27777 14.5138 8.375C14.2083 7.41666 13.7777 6.51389 13.3333 5.68055C12.8055 4.72222 12.2499 3.86111 11.7916 3.08333C11.111 1.94444 10.6388 1.01389 10.7638 0.361111C11.7638 0.125 12.8194 0 13.8888 0H36.111C41.9166 0 46.9165 3.61111 48.986 8.69444C49.2082 9.23611 49.4027 9.80555 49.5415 10.3889Z" fill="#F2F2F2"/>
<path d="M50 13.8889V14.2639L48.0834 15.375L46.8612 16.0833L45.5139 16.8611L42.8195 18.4305L40.1806 19.9583L37.4862 21.5139L36.4167 22.1389C36.4167 22.8055 36.2501 23.4167 35.9445 23.9722C35.5139 24.7778 34.7917 25.4444 33.8751 26.0139C32.9445 26.5833 31.8056 27.0417 30.5278 27.375C30.5278 27.375 30.5278 27.3611 30.514 27.375C25.5695 28.6528 18.8195 28.0694 15.5418 25.625C14.6251 24.9444 13.9862 24.1111 13.7084 23.1528C13.6251 22.8333 13.5834 22.4861 13.5834 22.1389V12.1528C13.5973 11.9444 13.4584 11.7361 13.2084 11.5278C12.4584 10.9306 10.6945 10.3611 8.72232 9.79166C7.18066 9.36111 5.52788 8.93055 4.13899 8.51389C3.04177 8.18055 2.11122 7.84722 1.55566 7.52777C1.80566 7.04166 2.09733 6.55555 2.40289 6.09722C4.34733 3.25 7.31954 1.15278 10.764 0.361111C11.764 0.125 12.8195 0 13.889 0H28.889C36.3473 1.30556 43.2223 4.34722 48.9861 8.69444C49.2084 9.23611 49.4028 9.80555 49.5417 10.3889C49.7917 11.3056 49.9445 12.25 49.9862 13.2361C50 13.4444 50 13.6667 50 13.8889Z" fill="#F2F2F2"/>
<path d="M49.9998 13.8889V20.0139L49.6942 20.9583L48.6526 24.1944L47.5692 27.5278L46.9998 29.3055L46.472 30.9583L45.9581 32.5278L45.4581 34.0833L45.1942 34.9027L44.847 35.9861C44.847 37.0416 44.8192 37.9722 44.7498 38.7639C44.7359 38.8472 44.722 38.9305 44.722 39.0139C44.6387 39.75 44.5276 40.375 44.347 40.9027C44.3331 40.9861 44.3053 41.0694 44.2776 41.1389C43.9165 42.1389 43.3748 42.7777 42.5692 43.1944C42.3748 43.3055 42.1526 43.3889 41.9165 43.4722C41.1803 43.7222 40.2498 43.8472 39.1109 43.9166C38.2776 43.9722 37.3192 43.9861 36.2359 43.9861H35.2776L33.6248 43.9166L33.3331 43.9027L30.3193 43.7777L27.2637 43.6527L17.1943 43.2361L14.5832 43.125H14.2221C13.1387 43.1111 12.2082 43.0416 11.4026 42.9305C10.2359 42.75 9.33317 42.4444 8.65262 41.9861C7.6804 41.3611 7.11095 40.4444 6.77762 39.1666C6.69429 38.8611 6.62484 38.5416 6.58317 38.1944C6.44429 37.3889 6.37484 36.4583 6.33318 35.4166C6.33318 35.2083 6.33318 35 6.31929 34.7778C6.3054 34.7639 6.31929 34.7639 6.31929 34.7639V33.9583C6.3054 33.5555 6.3054 33.1389 6.3054 32.7083L6.37484 30.4722L6.41651 28.875L6.47206 27.0139V26.75L6.56929 23.3333L6.66651 19.9166L6.76373 16.7083L6.84706 13.5555L6.87484 12.7222C6.87484 12.2917 5.41651 12.0417 3.79151 11.8333C2.49985 11.6667 1.08318 11.5139 0.235962 11.3194C0.305406 11 0.37485 10.6805 0.458184 10.375C0.708183 9.37499 1.08318 8.43054 1.5554 7.52776C1.8054 7.04165 2.09707 6.55554 2.40263 6.09721C5.40262 4.77777 8.52762 3.74999 11.7915 3.08332C14.6526 2.4861 17.6387 2.16666 20.722 2.16666C30.9443 2.16666 40.3887 5.62499 47.8609 11.4583C48.5831 12.0139 49.2914 12.6111 49.9859 13.2361C49.9998 13.4444 49.9998 13.6667 49.9998 13.8889Z" fill="#F2F2F2"/>
<path d="M49.9999 17.1805V23.4861L49.236 24.9583L47.7777 27.8055L46.9999 29.3055L46.2916 30.6805L45.986 31.2778C45.986 31.7083 45.986 32.125 45.9583 32.5278C45.9583 33.125 45.9305 33.6944 45.8888 34.2222C45.8333 34.8472 45.7499 35.4167 45.6666 35.9444C45.4583 37.0417 45.1666 37.9861 44.7499 38.7639C44.6944 38.8611 44.6388 38.9583 44.5833 39.0416C44.4305 39.2916 44.2499 39.5278 44.0555 39.75C43.8055 40.0555 43.5277 40.3194 43.2083 40.5416C42.7361 40.9028 42.1805 41.1944 41.5416 41.4166C40.7499 41.7083 39.8333 41.9028 38.7499 42.0139C38.0416 42.0833 37.2638 42.125 36.4166 42.125L35.8333 42.1528L32.9444 42.3194H32.9305L29.8611 42.5L26.7361 42.6805L22.4305 42.9305L17.1944 43.2361L16.4305 43.2778C15.7222 43.2778 15.0555 43.2361 14.4166 43.1528C14.3472 43.1389 14.2916 43.125 14.2222 43.125C13.2778 42.9722 12.4166 42.7222 11.6389 42.375C10.6944 41.9583 9.87499 41.4028 9.18054 40.7361C8.56943 40.1389 8.04165 39.4583 7.6111 38.6944C7.51388 38.5139 7.41666 38.3472 7.33332 38.1528C6.91666 37.3333 6.58332 36.4167 6.33332 35.4167C6.29166 35.25 6.24999 35.0694 6.22221 34.8889C6.13888 34.5694 6.06944 34.2361 6.02777 33.8889C5.87499 33 5.79166 32.0555 5.74999 31.0694V31.0555C5.7361 30.6528 5.72221 30.2639 5.72221 29.8472L5.04166 28.2222L4.94444 27.9722L4.8611 27.7639L3.81944 25.2778L3.65277 24.875L2.65277 22.4722L1.54166 19.7917C1.54166 19.7917 1.54166 19.7917 1.52778 19.7917L0.402777 17.0833L0 16.0972V13.8889C0 13.0139 0.0833333 12.1528 0.236111 11.3194C0.305555 11 0.374999 10.6806 0.458333 10.375C1.63889 9.69444 2.875 9.06944 4.13888 8.51388C7.02777 7.22222 10.125 6.26389 13.3333 5.68055C15.7222 5.25 18.2083 5.01389 20.7222 5.01389C30.875 5.01389 40.0833 8.69444 47.2777 14.6944C47.5555 14.9167 47.8194 15.1389 48.0833 15.375C48.736 15.9444 49.3749 16.5417 49.9999 17.1805Z" fill="#F2F2F2"/>
<path d="M49.9999 21.3194V28.4583L49.2083 30.1111L47.7083 33.2361L47.6944 33.2777C47.6944 33.875 47.6666 34.4166 47.6249 34.9027C47.486 36.5 47.0972 37.5139 46.4583 38.1389C45.9999 38.6111 45.4305 38.875 44.7222 39.0139C44.6805 39.0277 44.6249 39.0277 44.5833 39.0416C44.361 39.0833 44.1249 39.1111 43.8749 39.1111C43.0138 39.1944 41.9999 39.1389 40.8333 39.0555C40.7083 39.0555 40.5694 39.0416 40.4305 39.0277C39.5833 38.9722 38.6805 38.9166 37.6805 38.875C37.1388 38.8611 36.5694 38.8472 35.9861 38.8472H35.9583L34.5555 38.9583H34.5416L31.3888 39.1805L27.7916 39.4583L27.2638 39.5L23.0555 39.8055L20.875 39.9722L18.7222 40.125C18.3472 40.125 17.9861 40.125 17.625 40.1111C17.625 40.1111 17.6111 40.0972 17.6111 40.1111C16.0416 40.0833 14.6389 39.9861 13.3889 39.75C12.2361 39.5555 11.2222 39.25 10.3611 38.7916C9.47221 38.3611 8.7361 37.75 8.13888 36.9722C7.56943 36.2083 7.15277 35.25 6.88888 34.0972C6.88888 34.0833 6.88888 34.0833 6.88888 34.0833C6.69444 33.1527 6.58332 32.0694 6.58332 30.8472L6.37499 30.4722L5.13888 28.2639L4.95833 27.9583L4.8611 27.7639L3.56944 25.4722L2.93055 24.3194L2.125 22.8889L0.73611 20.4027L0 19.0972V13.9861C1.22222 13.1805 2.48611 12.4722 3.79166 11.8333C5.37499 11.0277 7.01388 10.3472 8.72221 9.79164C10.5833 9.18052 12.5278 8.69441 14.5139 8.37497C16.5278 8.04164 18.5972 7.87497 20.7222 7.87497C30.1666 7.87497 38.8333 11.25 45.5138 16.8611C45.8194 17.0972 46.111 17.3611 46.4027 17.6111C47.5694 18.6527 48.6805 19.7777 49.6944 20.9583C49.8055 21.0833 49.9166 21.1944 49.9999 21.3194Z" fill="#F2F2F2"/>
<path d="M49.9999 25.9861V36.0278C49.6666 35.8333 49.2083 35.5972 48.6388 35.3472C48.3333 35.1944 47.986 35.0416 47.6249 34.9027C47.0972 34.6666 46.5277 34.4444 45.8888 34.2222C45.7499 34.1666 45.611 34.125 45.4583 34.0833C45.2083 33.9861 44.9444 33.9028 44.6805 33.8194C43.861 33.5694 42.9583 33.3333 42.0138 33.125C41.6527 33.0555 41.2777 32.9861 40.9027 32.9305C39.6944 32.7222 38.4027 32.5972 37.0555 32.5833C36.9444 32.5694 36.8194 32.5694 36.7083 32.5694L33.1388 32.5972L28.2777 32.625H28.2638L17.8611 32.7083C14.5555 32.7083 12.5278 33.5 11.3055 33.8194C11.3055 33.8194 11.2917 33.8194 11.2917 33.8333C9.99999 34.1666 9.59721 33.9583 9.4861 31.6944C9.45832 31.0694 9.44443 30.2639 9.44443 29.2778L8.66665 28.6805L7.30555 27.6528L6.47221 27.0139L6.30555 26.8889L3.99999 25.1389L3.65277 24.875L2.93055 24.3194L1.59722 23.3194L0 22.0972V17.375C0.138889 17.2639 0.263888 17.1666 0.402777 17.0833C2.41666 15.6944 4.56944 14.5139 6.84721 13.5555C8.87499 12.6944 11.0139 12.0139 13.2083 11.5278C13.8055 11.4028 14.4166 11.2778 15.0416 11.1944C16.8889 10.875 18.7916 10.7222 20.7222 10.7222C29.0694 10.7222 36.7361 13.625 42.8194 18.4305C43.7361 19.1528 44.6249 19.9166 45.4583 20.7361C46.5972 21.8194 47.6666 22.9722 48.6527 24.1944C48.8472 24.4444 49.0416 24.6944 49.236 24.9583C49.4999 25.2916 49.7499 25.6389 49.9999 25.9861Z" fill="#F2F2F2"/>
<path d="M49.9999 31.5556V36.1111C49.9999 37.0139 49.9166 37.9028 49.7499 38.7639C49.4999 40.0417 49.0694 41.2639 48.486 42.4028C48.1805 42.4722 47.8333 42.4722 47.4444 42.4167C46.5694 42.2639 45.5416 41.8056 44.4305 41.2083C44.3749 41.1944 44.3194 41.1667 44.2777 41.1389C43.9305 40.9583 43.5694 40.7639 43.2083 40.5417C42.4722 40.1389 41.6944 39.6944 40.9166 39.2778C40.7499 39.1944 40.5833 39.1111 40.4305 39.0278C39.5416 38.5694 38.6249 38.1528 37.7083 37.8333C37.7083 37.8333 37.7083 37.8333 37.6944 37.8333C37.4999 37.7639 37.2916 37.6944 37.0833 37.6389C36.2916 37.4167 35.4861 37.2778 34.7083 37.2778L33.1805 36.8333L26.4166 34.875C26.4166 34.875 26.4166 34.875 26.4027 34.875L22.25 33.6667H22.2361L20.4305 33.1389C15.2083 33.1389 12 35.3611 10.4444 34.5139C9.83332 34.1945 9.47221 33.3889 9.34721 31.8056C9.30554 31.3611 9.29165 30.8611 9.29165 30.2778L7.66666 29.4861L7.59721 29.4583H7.58332L6.41666 28.875L5.13888 28.2639L5.04166 28.2222L4.80555 28.0972L2.08333 26.7778L0 25.7639V21C0.236111 20.7917 0.486111 20.5972 0.73611 20.4028C0.999999 20.1945 1.26389 20 1.52778 19.7917C1.54166 19.7917 1.54166 19.7917 1.54166 19.7917C3.18055 18.6111 4.91666 17.5695 6.76388 16.7083C8.91665 15.6806 11.2083 14.8889 13.5833 14.375C13.9305 14.2917 14.2916 14.2083 14.6528 14.1528C16.625 13.7778 18.6528 13.5833 20.7222 13.5833C28.0416 13.5833 34.7638 15.9583 40.1805 19.9583C41.7499 21.125 43.2083 22.4167 44.5416 23.8195C45.6388 24.9722 46.6527 26.2222 47.5694 27.5278C47.6388 27.625 47.7083 27.7222 47.7777 27.8056C48.2916 28.5556 48.7638 29.3195 49.2083 30.1111C49.4999 30.5833 49.7499 31.0695 49.9999 31.5556Z" fill="#F2F2F2"/>
<path d="M49.7499 38.7639C49.4999 40.0417 49.0694 41.2639 48.486 42.4028C48.2222 42.9167 47.9305 43.4028 47.611 43.875C47.4166 44.1667 47.2083 44.4444 46.9999 44.7083C46.4999 44.5139 45.7638 44.2361 44.861 43.9306C44.861 43.9306 44.861 43.9306 44.861 43.9167C44.1805 43.6806 43.4027 43.4306 42.5694 43.1944C42.3333 43.125 42.0972 43.0556 41.8472 42.9861C40.8611 42.7222 39.8333 42.4861 38.8333 42.3472C37.9999 42.2083 37.1805 42.125 36.4166 42.125L35.7777 41.9444H35.7638L32.4027 40.9722L30.3333 40.375L28.0277 39.7083H28.0138L27.2638 39.5L18.1944 36.8889L15.5833 36.1389L13.6389 35.6806L10.4722 34.9306L10.0833 34.8333C10.0833 34.8333 10.0833 34.8333 10.0694 34.8333L6.88888 34.0972C6.88888 34.0833 6.88888 34.0833 6.88888 34.0833L6.31944 33.9583L6.02777 33.8889L3.70833 33.3472L3.44444 33.2778L1.47222 31.6528L0 30.4167V24.75C0.513888 24.25 1.04167 23.7778 1.59722 23.3195C1.76389 23.1667 1.94444 23.0278 2.125 22.8889C2.29166 22.75 2.47222 22.6111 2.65277 22.4722C3.91666 21.5139 5.24999 20.6528 6.66666 19.9167C8.47221 18.9445 10.3889 18.1667 12.4028 17.6111C12.7916 17.4861 13.1805 17.375 13.5833 17.2917C15.8611 16.7222 18.25 16.4306 20.7222 16.4306C26.9305 16.4306 32.7083 18.3056 37.4861 21.5139C39.8611 23.1111 41.9999 25.0278 43.8055 27.2083C44.7222 28.3056 45.5555 29.4583 46.2916 30.6806C46.361 30.7778 46.4166 30.8611 46.4722 30.9583C46.9166 31.6945 47.3333 32.4583 47.7083 33.2361C48.0555 33.9306 48.361 34.625 48.6388 35.3472C49.0833 36.4583 49.4444 37.5972 49.7499 38.7639Z" fill="#F2F2F2"/>
<path d="M47.611 43.875C47.4166 44.1666 47.2083 44.4444 46.9999 44.7083C46.3888 45.4722 45.7222 46.1666 44.9722 46.7778C44.3194 47.3194 43.6249 47.8055 42.8888 48.2222C42.6111 48.1528 42.3333 48.0694 42.0416 47.9583C41.1249 47.6389 40.1666 47.1111 39.2777 46.5555C37.9444 45.7083 36.7916 44.7916 36.2777 44.375C36.0833 44.2083 35.9861 44.125 35.9861 44.125L33.625 43.9166L33.3333 43.8889L30.2777 43.625L27.1111 43.3472L22.4305 42.9305L15.0139 42.2778L14.9861 42.2639L12.375 41L9.7361 39.7222L7.6111 38.6944L7.15277 38.4722L6.58332 38.1944L4.6111 37.2361L1.98611 35.9722L1.16667 35.5694L0 35.2083V29C0.652777 28.2222 1.34722 27.4861 2.08333 26.7778C2.55555 26.3333 3.05555 25.8889 3.56944 25.4722C3.65277 25.4028 3.73611 25.3333 3.81944 25.2778C3.87499 25.2083 3.94444 25.1667 3.99999 25.1389C4.81944 24.4722 5.68055 23.875 6.56943 23.3333C7.59721 22.6805 8.68054 22.0972 9.80554 21.6111C11.0139 21.0694 12.2778 20.6111 13.5833 20.2639C15.8472 19.625 18.25 19.2917 20.7222 19.2917C26.3889 19.2917 31.625 21.0139 35.9444 23.9722C38.7083 25.8611 41.0972 28.25 42.986 31.0139C43.611 31.9028 44.1666 32.8472 44.6805 33.8194C44.861 34.1805 45.0416 34.5417 45.1944 34.9028C45.361 35.25 45.5138 35.5972 45.6666 35.9444C45.9583 36.6666 46.2222 37.3889 46.4583 38.1389C46.9027 39.5278 47.236 40.9444 47.4444 42.4166C47.5138 42.9028 47.5694 43.3889 47.611 43.875Z" fill="#F2F2F2"/>
<path d="M44.986 46.4167C44.986 46.5278 44.9861 46.6528 44.9722 46.7778C44.3194 47.3194 43.6249 47.8055 42.8888 48.2222C42.5833 48.3889 42.2777 48.5555 41.9583 48.6944C41.6388 48.8472 41.3194 48.9861 40.9861 49.1111C40.5138 48.8611 39.875 48.5555 39.1944 48.2639C38.2361 47.8333 37.1944 47.4444 36.3888 47.3194C36.1944 47.2778 36.0138 47.2639 35.8472 47.2639L33.5694 46.9722H33.5416L30.7083 46.5972L27.8472 46.2222L26.5139 46.0555L16.0139 44.6944C15.3333 44.6944 14.6111 44.6528 13.8611 44.5555C12.9444 44.4722 11.9861 44.3333 11.0278 44.1389C10.0833 43.9722 9.12499 43.75 8.20832 43.5139C7.24999 43.2917 6.30555 43.0278 5.43055 42.7778C4.41666 42.4722 3.47222 42.1805 2.68055 41.9167C2.02777 41.7083 1.47222 41.5139 1.04167 41.3611C0.791666 40.7639 0.583332 40.1389 0.430555 39.5C0.138889 38.4167 0 37.2778 0 36.1111V33.7917C0.444444 33.0555 0.930554 32.3333 1.47222 31.6528C2.45833 30.3472 3.58333 29.1528 4.80555 28.0972C4.84722 28.0417 4.90277 28 4.94444 27.9722L4.95833 27.9583C5.38888 27.5694 5.83333 27.2222 6.30555 26.8889C6.3611 26.8333 6.41666 26.7917 6.47221 26.75C6.69444 26.5833 6.93055 26.4167 7.18055 26.2639C9.16665 24.9167 11.3611 23.8611 13.7083 23.1528C15.9305 22.4861 18.2778 22.1389 20.7222 22.1389C25.5694 22.1389 30.0972 23.5694 33.875 26.0139C36.6666 27.8055 39.0694 30.1667 40.9027 32.9305C41.1249 33.25 41.3333 33.5694 41.5416 33.9028C42.4999 35.5278 43.2916 37.2778 43.8749 39.1111C43.9444 39.3194 43.9999 39.5278 44.0555 39.75C44.1666 40.125 44.2638 40.5139 44.3472 40.9028C44.3749 41 44.4027 41.0972 44.4305 41.2083C44.6249 42.0833 44.7638 43 44.861 43.9167C44.861 43.9305 44.861 43.9305 44.861 43.9305C44.9444 44.75 44.986 45.5833 44.986 46.4167Z" fill="#F2F2F2"/>
<path d="M42.1249 46.4167C42.1249 46.9028 42.0971 47.4305 42.0416 47.9583C42.0138 48.2083 41.986 48.4583 41.9583 48.6944C41.6388 48.8472 41.3194 48.9861 40.986 49.1111C40.361 49.3472 39.7222 49.5417 39.0694 49.6805C38.6249 49.7778 38.1666 49.8611 37.7083 49.9028H37.6944C37.2638 49.6389 36.7638 49.3194 36.2499 48.9583C35.3194 48.3055 34.3472 47.5694 33.5694 46.9722C33.5555 46.9583 33.5555 46.9583 33.5416 46.9444C32.7222 46.3194 32.1388 45.8472 32.1388 45.8472L30.6666 45.9028L27.8333 46L26.5138 46.0555L21.2083 46.25L16.7222 46.4167C16.4305 46.4305 16.0833 46.4305 15.6527 46.4167H15.6389C15.0555 46.4028 14.3611 46.3611 13.5972 46.2917C12.7083 46.2222 11.7361 46.1389 10.75 46.0417C9.79164 45.9306 8.81942 45.8194 7.88886 45.7083C6.86109 45.5972 5.88887 45.4722 5.05554 45.3611C4.40276 45.2778 3.83332 45.2083 3.37498 45.1528C2.98609 44.7083 2.63887 44.25 2.30554 43.75C1.80554 43 1.37499 42.2083 1.04165 41.3611C0.791653 40.7639 0.58332 40.1389 0.430542 39.5C0.833319 38.2639 1.3611 37.0972 1.9861 35.9722C2.48609 35.0556 3.06943 34.1806 3.70832 33.3472C4.33331 32.5278 5.01387 31.7639 5.74998 31.0694V31.0556C5.95831 30.8472 6.16664 30.6528 6.37498 30.4722C6.76387 30.1111 7.16664 29.7778 7.58331 29.4583H7.5972C7.61109 29.4306 7.62498 29.4306 7.63886 29.4167C7.9722 29.1528 8.31942 28.9167 8.66664 28.6806C10.7222 27.2778 13.0416 26.2361 15.5416 25.625C17.1944 25.2222 18.9305 25 20.7222 25C24.25 25 27.5833 25.8472 30.5138 27.375H30.5277C33.0416 28.6667 35.2638 30.4444 37.0555 32.5833C38.0416 33.7222 38.8888 34.9722 39.5833 36.2917C40.0694 37.1806 40.486 38.1111 40.8333 39.0555C40.861 39.1389 40.8888 39.2083 40.9166 39.2778C41.1527 39.9722 41.361 40.6944 41.5416 41.4167C41.6666 41.9305 41.7638 42.4583 41.8471 42.9861C41.8749 43.1528 41.9027 43.3055 41.9166 43.4722C42.0555 44.4305 42.1249 45.4167 42.1249 46.4167Z" fill="#F2F2F2"/>
<path d="M39.2777 46.4166V46.5555C39.2777 47.0277 39.236 47.625 39.1944 48.2639C39.1527 48.7361 39.111 49.2222 39.0694 49.6805C38.6249 49.7777 38.1666 49.8611 37.7083 49.9027H37.6944C37.1666 49.9722 36.6527 50 36.1111 50H33.6805L33.1527 49.8472L30.4166 49.0139L27.6388 48.1805L21.2083 46.25L18.4305 45.4166C18.4305 45.4166 17.2777 45.875 15.6527 46.4166H15.6389C15.0139 46.625 14.3333 46.8472 13.6111 47.0694C12.7083 47.3333 11.75 47.5972 10.8055 47.8055C9.83331 48.0277 8.87498 48.1944 8.01387 48.2639C7.74998 48.2916 7.48609 48.3055 7.24998 48.3055C6.4722 47.875 5.7222 47.3611 5.04165 46.7916C4.44443 46.2916 3.88887 45.75 3.37499 45.1527C2.9861 44.7083 2.63887 44.25 2.30554 43.75C2.40276 43.125 2.51388 42.5139 2.68054 41.9166C3.09721 40.2639 3.74998 38.6805 4.61109 37.2361C5.08332 36.4166 5.61109 35.625 6.2222 34.8889C6.23609 34.8472 6.27776 34.8055 6.31943 34.7778C6.30554 34.7639 6.31943 34.7639 6.31943 34.7639C6.49998 34.5278 6.69443 34.3055 6.88887 34.0972C6.88887 34.0833 6.88887 34.0833 6.88887 34.0833C7.45831 33.4722 8.04165 32.8889 8.68053 32.3472C8.90276 32.1666 9.11109 31.9861 9.3472 31.8055C9.38887 31.7639 9.43053 31.7361 9.48609 31.6944C12.6111 29.3055 16.5139 27.8611 20.7222 27.8611C25.5 27.8611 29.8472 29.6528 33.1388 32.5972C34.7222 34.0277 36.0694 35.7361 37.0833 37.6389C37.1666 37.7777 37.2499 37.9305 37.3194 38.0833C37.4444 38.3333 37.5694 38.5972 37.6805 38.875C38.1388 39.875 38.4999 40.9305 38.7499 42.0139C38.7777 42.125 38.8055 42.2361 38.8333 42.3472C38.9444 42.8611 39.0416 43.3889 39.111 43.9166C39.2222 44.7361 39.2777 45.5694 39.2777 46.4166Z" fill="#F2F2F2"/>
<path d="M36.4167 46.4166C36.4167 46.6944 36.4028 47 36.3889 47.3194C36.3611 47.8333 36.3194 48.3889 36.25 48.9583C36.2222 49.3055 36.1667 49.6528 36.1111 50H28.5L27.0278 49.7639L21.2778 48.8472L20.4583 48.7222L18.5833 48.4166C17.7639 48.4166 15.9861 48.7777 14.1111 49.125C13.125 49.3055 12.125 49.5 11.2222 49.625C11.1111 49.6389 11 49.6527 10.9028 49.6666H10.8889C9.91669 49.4583 8.97224 49.1389 8.08336 48.7222C7.80558 48.5972 7.5278 48.4583 7.25003 48.3055C6.47225 47.875 5.72225 47.3611 5.04169 46.7916C5.02781 46.625 5.01392 46.4861 5.01392 46.4166C5.01392 46.0555 5.02781 45.7083 5.05558 45.3611C5.11114 44.4722 5.23614 43.6111 5.43058 42.7778C5.73614 41.5139 6.18058 40.2916 6.7778 39.1666C6.88891 38.9305 7.01391 38.6944 7.1528 38.4722C7.20836 38.3611 7.2778 38.2639 7.33336 38.1528C7.58336 37.75 7.86113 37.3611 8.13891 36.9722C8.72224 36.2083 9.37502 35.4861 10.0695 34.8333C10.0834 34.8333 10.0834 34.8333 10.0834 34.8333C10.1389 34.7778 10.1945 34.7222 10.25 34.6805C10.3195 34.625 10.375 34.5555 10.4445 34.5139C10.7222 34.2639 11 34.0416 11.2917 33.8333C11.2917 33.8194 11.3056 33.8194 11.3056 33.8194C13.9306 31.8611 17.1806 30.7083 20.7222 30.7083C23.4722 30.7083 26.0278 31.4028 28.2639 32.625H28.2778C30.1944 33.6805 31.8611 35.1111 33.1805 36.8333C33.6944 37.5 34.1528 38.2083 34.5417 38.9583H34.5555C34.625 39.0972 34.6944 39.2361 34.7639 39.375C35.1805 40.1944 35.5139 41.0555 35.7639 41.9444H35.7778C35.7917 42.0139 35.8194 42.0833 35.8333 42.1528C36 42.75 36.1389 43.3611 36.2361 43.9861C36.25 44.1111 36.2639 44.25 36.2778 44.375C36.375 45.0416 36.4167 45.7222 36.4167 46.4166Z" fill="#F2F2F2"/>
<path d="M33.5694 46.2639C33.5694 46.4861 33.5694 46.7222 33.5416 46.9444V46.9583C33.5416 46.9722 33.5416 46.9722 33.5416 46.9722C33.5139 47.9722 33.375 48.9583 33.1527 49.8472C33.1527 49.9028 33.1389 49.9444 33.1111 50H26.625L21.2778 48.8472L20.5694 48.6944L20.4583 48.7222L14.5278 49.9444L14.2639 50H13.8889C13 50 12.125 49.9166 11.2778 49.75C11.1528 49.7222 11.0278 49.6944 10.9028 49.6666H10.8889C9.91666 49.4583 8.97222 49.1389 8.08333 48.7222C8.05555 48.5694 8.02778 48.4166 8.01389 48.2639C7.91667 47.6666 7.875 47.0416 7.875 46.4166C7.875 46.1805 7.875 45.9444 7.88889 45.7083C7.93056 44.9583 8.04167 44.2222 8.20833 43.5139C8.31944 42.9861 8.47222 42.4722 8.65278 41.9861C8.80555 41.5555 8.98611 41.1389 9.18055 40.7361C9.34722 40.3889 9.54166 40.0555 9.73611 39.7222C9.93055 39.4028 10.1389 39.0972 10.3611 38.7916C10.9167 38.0278 11.5694 37.3194 12.2917 36.6944C12.7083 36.3333 13.1667 35.9861 13.6389 35.6805C15.6667 34.3472 18.0972 33.5694 20.7222 33.5694C21.2361 33.5694 21.7361 33.5972 22.2222 33.6666H22.25C23.7361 33.8333 25.125 34.25 26.4028 34.875C26.4166 34.875 26.4166 34.875 26.4166 34.875C28.4305 35.8611 30.1389 37.3472 31.3889 39.1805C31.5972 39.4861 31.8055 39.8194 31.9861 40.1528C32.1389 40.4166 32.2777 40.6944 32.4027 40.9722C32.5972 41.4028 32.7777 41.8611 32.9305 42.3194H32.9444C33.0972 42.8333 33.2361 43.3472 33.3333 43.8889V43.9028C33.4861 44.6666 33.5694 45.4583 33.5694 46.2639Z" fill="#F2F2F2"/>
<path d="M30.7084 46.5555V46.5972C30.7084 47.4166 30.6112 48.2222 30.4167 49.0139C30.3473 49.3472 30.25 49.6805 30.125 50H23.9028L20.7223 49.125L17.5417 50H13.889C13.0001 50 12.1251 49.9166 11.2778 49.75C11.2501 49.7083 11.2362 49.6666 11.2223 49.625C11.0278 49.0278 10.8751 48.4305 10.8056 47.8055C10.7501 47.4028 10.7223 46.9861 10.7223 46.5555C10.7223 46.3889 10.7223 46.2083 10.7501 46.0417C10.764 45.3889 10.8612 44.75 11.0278 44.1389C11.1112 43.7222 11.2362 43.3194 11.4028 42.9305C11.4584 42.7361 11.5417 42.5555 11.639 42.375C11.8473 41.9028 12.0973 41.4444 12.3751 41C12.6806 40.5555 13.014 40.1389 13.389 39.75C13.8334 39.25 14.3334 38.7917 14.9028 38.4167C15.8751 37.7083 16.9862 37.1805 18.1945 36.8889C19.0001 36.6667 19.8473 36.5555 20.7223 36.5555C23.5001 36.5555 25.9862 37.6667 27.7917 39.4583C27.8612 39.5278 27.9445 39.6111 28.0139 39.7083H28.0278C28.2223 39.9167 28.4028 40.125 28.5834 40.3611C29.0973 41.0139 29.5278 41.7222 29.8612 42.5C30.0278 42.8611 30.1667 43.2361 30.2778 43.625C30.2917 43.6805 30.3056 43.7222 30.3195 43.7778C30.5139 44.4583 30.6389 45.1666 30.6667 45.9028C30.6945 46.1111 30.7084 46.3333 30.7084 46.5555Z" fill="#F2F2F2"/>
<path d="M27.861 46.5556C27.861 47.125 27.7916 47.6667 27.6388 48.1806C27.4999 48.7361 27.2916 49.2639 27.0277 49.7639C26.986 49.8472 26.8888 50 26.8888 50H14.5555C14.5416 49.9861 14.5277 49.9583 14.5277 49.9445C14.361 49.6806 14.2221 49.4167 14.111 49.125C13.8333 48.4861 13.6666 47.7917 13.611 47.0695C13.5833 46.9028 13.5833 46.7222 13.5833 46.5556C13.5833 46.4722 13.5833 46.375 13.5971 46.2917C13.611 45.6806 13.6944 45.0972 13.861 44.5556C13.9999 44.0556 14.1805 43.5972 14.4166 43.1528C14.4166 43.1528 14.4305 43.1389 14.4305 43.125C14.5971 42.8333 14.7777 42.5417 14.986 42.2639C15.6666 41.3472 16.5694 40.5972 17.611 40.1111C17.6249 40.1111 17.6249 40.1111 17.6249 40.1111C17.9582 39.9445 18.3055 39.8056 18.6666 39.7084C18.6666 39.7084 18.6666 39.7084 18.6805 39.7084C19.3194 39.5139 20.0138 39.4167 20.7221 39.4167C21.5416 39.4167 22.3332 39.5417 23.0555 39.8056C23.3194 39.875 23.5693 39.9861 23.8193 40.1111C23.8193 40.1111 23.8193 40.1111 23.8332 40.1111C25.0277 40.6806 26.0416 41.5695 26.736 42.6806C26.8749 42.8889 26.9999 43.1111 27.111 43.3472C27.1666 43.4445 27.2221 43.5556 27.2638 43.6528C27.5832 44.375 27.7777 45.1667 27.8332 46C27.8471 46.0695 27.8471 46.1389 27.8471 46.2222C27.861 46.3333 27.861 46.4445 27.861 46.5556Z" fill="#F2F2F2"/>
<path d="M33.3333 6.94443H16.6667C11.25 6.94443 6.94446 11.25 6.94446 16.6666V33.3333C6.94446 38.75 11.25 43.0555 16.6667 43.0555H33.3333C38.75 43.0555 43.0555 38.75 43.0555 33.3333V16.6666C43.0555 11.25 38.75 6.94443 33.3333 6.94443Z" stroke="black" stroke-width="4" stroke-miterlimit="10" stroke-linecap="round" stroke-linejoin="round"/>
<path d="M34.7221 15.2778C35.4892 15.2778 36.111 14.656 36.111 13.8889C36.111 13.1218 35.4892 12.5 34.7221 12.5C33.9551 12.5 33.3333 13.1218 33.3333 13.8889C33.3333 14.656 33.9551 15.2778 34.7221 15.2778Z" fill="black"/>
<path d="M24.9999 33.3333C29.6023 33.3333 33.3333 29.6024 33.3333 25C33.3333 20.3976 29.6023 16.6667 24.9999 16.6667C20.3976 16.6667 16.6666 20.3976 16.6666 25C16.6666 29.6024 20.3976 33.3333 24.9999 33.3333Z" stroke="black" stroke-width="4" stroke-miterlimit="10" stroke-linecap="round" stroke-linejoin="round"/>
</svg>
