<svg width="50" height="50" viewBox="0 0 50 50" fill="none" xmlns="http://www.w3.org/2000/svg">
<path d="M45 0H5C2.25 0 0 2.25 0 5V45C0 47.75 2.25 50 5 50H45C47.75 50 50 47.75 50 45V5C50 2.25 47.75 0 45 0ZM15 42.5H7.5V20H15V42.5ZM11.25 15.75C8.75 15.75 6.75 13.75 6.75 11.25C6.75 8.75 8.75 6.75 11.25 6.75C13.75 6.75 15.75 8.75 15.75 11.25C15.75 13.75 13.75 15.75 11.25 15.75ZM42.5 42.5H35V29.25C35 27.2501 33.25 25.5 31.25 25.5C29.25 25.5 27.5 27.2501 27.5 29.25V42.5H20V20H27.5V23C28.75 21 31.5 19.5 33.75 19.5C38.5 19.5 42.5 23.5 42.5 28.25V42.5Z" fill="#F2F2F2"/>
</svg>
